<svg width="1050" height="1300" viewBox="0 0 1050 1300" xmlns="http://www.w3.org/2000/svg">
  <title>MeshCon Business Card - Dark Mode</title>
  <defs>
    <style>
      @import url('https://fonts.googleapis.com/css2?family=JetBrains+Mono:wght@400;500;700&amp;family=Plus+Jakarta+Sans:wght@600;700&amp;family=Inter:wght@400;500&amp;display=swap');
      .text-mono { font-family: 'JetBrains Mono', monospace; }
      .sans-bold { font-family: 'Plus Jakarta Sans', sans-serif; font-weight: 700; }
    </style>
  </defs>
  <!-- FRONT -->
  <g transform="translate(0,0)">
    <rect width="1050" height="600" fill="#000000" rx="20"/>
    <path d="M0 80H1050M0 520H1050" stroke="#ff8a2a" stroke-opacity="0.1" stroke-width="1"/>
    
    <!-- MeshCon Logo Container -->
    <image href="MeshCon-Logo-dark.png" x="225" y="170" width="600" height="218" preserveAspectRatio="xMidYMid meet"/>
    <text x="525" y="440" text-anchor="middle" class="text-mono" font-weight="700" font-size="20" fill="#ff8a2a" letter-spacing="4">// EXPERT ON-SITE TECH SUPPORT</text>
    <rect x="0" y="590" width="1050" height="10" fill="#ff8a2a"/>
  </g>

  <text x="525" y="660" text-anchor="middle" font-family="monospace" font-size="14" fill="#666">MESHCON BRANDING · FRONT (TOP) / BACK (BOTTOM)</text>

  <!-- BACK -->
  <g transform="translate(0,700)">
    <rect width="1050" height="600" fill="#000000" rx="20"/>
    <rect width="8" height="600" fill="#ff8a2a"/>
    
    <g transform="translate(60, 80)">
      <text class="sans-bold" font-size="44" fill="#f0ebe3">Bodin Praphanthongchai (Pete)</text>
      <text y="50" class="text-mono" font-weight="500" font-size="22" fill="#ff8a2a">Systems Specialist // On-Site Expert</text>
      <g transform="translate(0, 160)" font-family="Inter, sans-serif" font-size="20">
        <text fill="#a0a0a0" class="text-mono">WEB:</text>
        <text x="100" fill="#f0ebe3">www.meshcon.tech</text>
        <text y="50" fill="#a0a0a0" class="text-mono">MAIL:</text>
        <text x="100" y="50" fill="#f0ebe3">info@meshcon.tech</text>
        <text y="100" fill="#a0a0a0" class="text-mono">PHONE:</text>
        <text x="100" y="100" fill="#f0ebe3">+1 (000) 000-0000</text>
        <text y="150" fill="#a0a0a0" class="text-mono">AREA:</text>
        <text x="100" y="150" fill="#f0ebe3">Chicago &amp; 35-Mile Radius</text>
      </g>
    </g>
    
    <g transform="translate(60, 440)">
      <g stroke="#222" fill="#161616">
        <rect width="40" height="40" rx="10"/>
        <rect x="55" width="40" height="40" rx="10"/>
        <rect x="110" width="40" height="40" rx="10"/>
        <rect x="165" width="40" height="40" rx="10"/>
        <rect x="220" width="40" height="40" rx="10"/>
      </g>
      <g stroke="#ff8a2a" stroke-width="2" fill="none" stroke-linecap="round" stroke-linejoin="round" transform="translate(10.4,8) scale(0.8)">
        <path d="M18 2h-3a5 5 0 0 0-5 5v3H7v4h3v8h4v-8h3l1-4h-4V7a1 1 0 0 1 1-1h3z"/>
        <g transform="translate(68.75, 0)"><path d="M4 4l11.733 16h4.267l-11.733 -16zM4 20l6.768 -6.768m2.46 -2.46l6.772 -6.772"/></g>
        <g transform="translate(137.5, 0)"><rect x="2" y="2" width="20" height="20" rx="5"></rect><path d="M16 11.37A4 4 0 1 1 12.63 8 4 4 0 0 1 16 11.37z"></path></g>
        <g transform="translate(206.25, 0)"><path d="M21 11.5a8.38 8.38 0 0 1-.9 3.8 8.5 8.5 0 0 1-7.6 4.7 8.38 8.38 0 0 1-3.8-.9L3 21l1.9-5.7a8.38 8.38 0 0 1-.9-3.8 8.5 8.5 0 0 1 4.7-7.6 8.38 8.38 0 0 1 3.8-.9h.5a8.48 8.48 0 0 1 8 8v.5z"/></g>
        <g transform="translate(275, 0)"><path d="M9 12a1 1 0 1 0 2 0 1 1 0 0 0-2 0m4 0a1 1 0 1 0 2 0 1 1 0 0 0-2 0"/><path d="M7.5 8.5c1.4-1.1 3.2-1.5 4.5-1.5s3.1.4 4.5 1.5c.7.5 1.5.5 2.2 0l.5-.4c1-1 2.3-1.6 3.7-1.6h.1c.6 0 1.1.5 1.1 1.1v2.1c0 3.7-2 7.1-5.3 8.8l-.5.2c-.8.4-1.7.4-2.5 0l-.5-.2C12 17.1 10 13.7 10 10V7.9c0-.6.5-1.1 1.1-1.1h.1c1.4 0 2.7.6 3.7 1.6l.5.4c.7.5 1.5.5 2.2 0"/></g>
      </g>
    </g>

    <g transform="translate(620, 180)">
      <rect width="370" height="350" rx="16" fill="#161616" stroke="#222"/>
      <g transform="translate(30, 45)">
        <text class="text-mono" font-weight="700" font-size="18" fill="#ff8a2a" letter-spacing="1">CORE SERVICES:</text>
        <g transform="translate(0, 40)" font-family="Inter, sans-serif" font-size="17" fill="#ddd8d0">
          <text y="0">● PC &amp; Laptop Performance</text>
          <text y="35">● Mesh WiFi &amp; Networking</text>
          <text y="70">● Secure NAS &amp; Backups</text>
          <text y="105">● Smart Home &amp; IP Cams</text>
          <text y="140">● Senior-Friendly Lessons</text>
          <text y="175">● Small Business Support</text>
        </g>
      </g>
    </g>
    <text x="1020" y="570" text-anchor="end" class="text-mono" font-size="12" fill="#444" opacity="0.3">v1.0</text>
  </g>
</svg>